<svg xmlns="http://www.w3.org/2000/svg" width="24" height="24" fill="white">
  <g clip-path="url(#a)">
    <path fill="currentColor" d="M18.933 12.032A10.663 10.663 0 0 0 24 3.35a.404.404 0 0 0-.4-.415h-2.153a.32.32 0 0 1-.32-.32V.4a.399.399 0 0 0-.415-.4 10.704 10.704 0 0 0-8.68 5.067A10.701 10.701 0 0 0 3.35 0a.404.404 0 0 0-.415.399v2.154a.32.32 0 0 1-.32.32H.4a.399.399 0 0 0-.4.414 10.704 10.704 0 0 0 5.067 8.68A10.713 10.713 0 0 0 0 20.65a.404.404 0 0 0 .399.415h2.154a.32.32 0 0 1 .32.319v2.226c0 .223.183.407.414.399a10.704 10.704 0 0 0 8.68-5.067c1.82 2.936 5.02 4.931 8.682 5.067a.404.404 0 0 0 .415-.4v-2.154a.32.32 0 0 1 .319-.319h2.226a.399.399 0 0 0 .399-.415 10.715 10.715 0 0 0-5.075-8.688zM12 10.683a1.318 1.318 0 0 1 0 2.633c-.726 0-1.317-.59-1.317-1.316 0-.726.59-1.317 1.317-1.317zm8.792-7.125a7.51 7.51 0 0 1-6.79 6.854.319.319 0 0 1-.343-.343 7.51 7.51 0 0 1 6.79-6.854.318.318 0 0 1 .343.343zM10.07 10.34a7.51 7.51 0 0 1-6.854-6.79.318.318 0 0 1 .343-.343 7.51 7.51 0 0 1 6.854 6.79c.016.2-.152.367-.343.343zM3.207 20.441a7.51 7.51 0 0 1 6.79-6.853.319.319 0 0 1 .343.343 7.51 7.51 0 0 1-6.79 6.853.318.318 0 0 1-.343-.343zM13.94 13.66a7.51 7.51 0 0 1 6.853 6.79.318.318 0 0 1-.343.343 7.51 7.51 0 0 1-6.854-6.79.311.311 0 0 1 .344-.343z"/>
  </g>
  <defs>
    <clipPath id="a">
      <path fill="#fff" d="M0 0h24v24H0z"/>
    </clipPath>
  </defs>
</svg>
