<?xml version="1.0" encoding="UTF-8"?>
<svg id="Layer_2" data-name="Layer 2" xmlns="http://www.w3.org/2000/svg" viewBox="0 0 107.16 107.16">
  <defs>
    <style>
      .cls-1 {
        fill: #ffffff;
        stroke-width: 0px;
      }
    </style>
  </defs>
  <g id="Layer_1-2" data-name="Layer 1">
    <g>
      <path class="cls-1" d="M71.44,89.3c-9.86,0-17.86-7.99-17.86-17.86h-17.86c0,19.73,15.99,35.72,35.72,35.72s35.72-15.99,35.72-35.72h-17.86c0,9.87-8,17.86-17.86,17.86Z"/>
      <path class="cls-1" d="M17.87,71.43c0,9.87,7.99,17.87,17.86,17.87v17.86C16,107.16,0,91.17,0,71.43s16-35.72,35.73-35.72v17.86c-9.87,0-17.86,8-17.86,17.86Z"/>
      <path class="cls-1" d="M35.72,17.86c9.86,0,17.86,7.99,17.86,17.86h17.86C71.44,15.99,55.45,0,35.72,0h0C16,0,0,15.99,0,35.72h17.86c0-9.87,8-17.86,17.86-17.86Z"/>
      <path class="cls-1" d="M89.3,35.72h0c0,9.86-7.99,17.86-17.86,17.86v17.86c19.73,0,35.72-15.99,35.72-35.72S91.17,0,71.44,0v17.86c9.87,0,17.86,8,17.86,17.86Z"/>
    </g>
  </g>
</svg>